<svg xmlns="http://www.w3.org/2000/svg" width="37" height="34" viewBox="0 0 37 34">
  <g id="Group_48" data-name="Group 48" transform="translate(-1050 -69)">
    <rect id="Rectangle_16" data-name="Rectangle 16" width="37" height="34" transform="translate(1050 69)" fill="none"/>
    <g id="Group_18" data-name="Group 18" transform="translate(1050 74)" opacity="0.51">
      <g id="Group_17" data-name="Group 17">
        <path id="Path_4" data-name="Path 4" d="M35,0H0V23.3H36.5V0ZM33.5,1.5l-14.1,14a1.825,1.825,0,0,1-2.4,0L2.9,1.5ZM1.5,2,11,11.5,1.5,21ZM2.6,21.9,12,12.6l4,4a3.262,3.262,0,0,0,4.5,0h0l4-4,9.3,9.3H2.6ZM35,21l-9.5-9.5L35,2Z"/>
      </g>
    </g>
  </g>
</svg>
